# xmcd
#
# Track frame offsets:
#	150
#	16262
#	35762
#	55037
#	69187
#	88762
#	108545
#	122250
#	137225
#	152537
#	170100
#
# Disc length: 2552 seconds
#
# Revision: 1
# Processed by: cddbd v1.5.1PL0 Copyright (c) Steve Scherf et al.
# Submitted via: CDex 1.50Beta5
#
DISCID=8b09f60b
DTITLE=上田正樹 - AFTER MIDNIGHT
DYEAR=1900
DGENRE=Pop
TTITLE0=ストレート・ライフ
TTITLE1=イエローページは閉じて
TTITLE2=レフト・アローン
TTITLE3=HELLO, I LOVE YOU
TTITLE4=夜はもう止まらない
TTITLE5=悲しい色やね
TTITLE6=ベイビー・レイデイ
TTITLE7=ピュア・マインド
TTITLE8=ラストダンスは僕に
TTITLE9=バラードまでそばにいて
TTITLE10=我が心のジョージア
EXTD=
EXTT0=
EXTT1=
EXTT2=
EXTT3=
EXTT4=
EXTT5=
EXTT6=
EXTT7=
EXTT8=
EXTT9=
EXTT10=
PLAYORDER=
